<svg width="30.875" xmlns="http://www.w3.org/2000/svg" height="29.688" id="screenshot-9f8e13d5-12ce-8028-8008-03ae014a93f5" viewBox="2769.563 789.75 30.875 29.688" style="-webkit-print-color-adjust::exact" xmlns:xlink="http://www.w3.org/1999/xlink" fill="none" version="1.1">
  <g id="shape-9f8e13d5-12ce-8028-8008-03ae014a93f5">
    <g class="fills" id="fills-9f8e13d5-12ce-8028-8008-03ae014a93f5">
      <path d="M2773.60595703125,819.2698974609375C2773.8837890625,819.31982421875,2774.16552734375,819.3587646484375,2774.4501953125,819.386474609375C2774.795654296875,819.4202270507812,2775.14599609375,819.4375,2775.5,819.4375C2777.582275390625,819.4375,2779.52880859375,818.8407592773438,2781.173583984375,817.8087158203125C2782.3984375,818.0970458984375,2783.6806640625,818.25,2785,818.25C2793.426513671875,818.25,2800.4375,811.9652709960938,2800.4375,804C2800.4375,796.0347290039062,2793.426513671875,789.75,2785,789.75C2776.573486328125,789.75,2769.5625,796.0347290039062,2769.5625,804C2769.5625,807.8135986328125,2771.184814453125,811.2628784179688,2773.796142578125,813.804443359375C2774.163330078125,814.1621704101562,2774.235107421875,814.48095703125,2774.198974609375,814.6635131835938C2773.999755859375,815.666748046875,2773.547607421875,816.5797119140625,2772.908935546875,817.3333740234375C2772.634521484375,817.6575317382812,2772.5537109375,818.103515625,2772.697509765625,818.503173828125C2772.84130859375,818.9027709960938,2773.187744140625,819.1952514648438,2773.60595703125,819.2698974609375ZM2779.0625,802.21875C2778.07861328125,802.21875,2777.28125,803.0162353515625,2777.28125,804C2777.28125,804.9837036132812,2778.07861328125,805.78125,2779.0625,805.78125C2780.04638671875,805.78125,2780.84375,804.9837036132812,2780.84375,804C2780.84375,803.0162353515625,2780.04638671875,802.21875,2779.0625,802.21875ZM2783.21875,804C2783.21875,803.0162353515625,2784.01611328125,802.21875,2785,802.21875C2785.98388671875,802.21875,2786.78125,803.0162353515625,2786.78125,804C2786.78125,804.9837036132812,2785.98388671875,805.78125,2785,805.78125C2784.01611328125,805.78125,2783.21875,804.9837036132812,2783.21875,804ZM2790.9375,802.21875C2789.95361328125,802.21875,2789.15625,803.0162353515625,2789.15625,804C2789.15625,804.9837036132812,2789.95361328125,805.78125,2790.9375,805.78125C2791.92138671875,805.78125,2792.71875,804.9837036132812,2792.71875,804C2792.71875,803.0162353515625,2791.92138671875,802.21875,2790.9375,802.21875Z" fill-rule="evenodd" clip-rule="evenodd" style="fill:#1e3e8a;fill-opacity:1">
      </path>
    </g>
  </g>
</svg>