<svg width="38" xmlns="http://www.w3.org/2000/svg" height="38" id="screenshot-521fe5e2-1c18-8017-8008-072b6565bbd8" viewBox="2378 1801.5 38 38" style="-webkit-print-color-adjust::exact" xmlns:xlink="http://www.w3.org/1999/xlink" fill="none" version="1.1">
  <g id="shape-521fe5e2-1c18-8017-8008-072b6565bbd8" style="fill:#000000" width="24" height="24" rx="0" ry="0">
    <g id="shape-521fe5e2-1c18-8017-8008-072b6565bbd9">
      <g class="fills" id="fills-521fe5e2-1c18-8017-8008-072b6565bbd9">
        <path d="M2378.618408203125,1802.1182861328125C2379.4423828125,1801.293701171875,2380.77978515625,1801.293701171875,2381.603759765625,1802.1182861328125L2397,1817.51416015625L2412.396240234375,1802.1182861328125C2413.220947265625,1801.293701171875,2414.556884765625,1801.293701171875,2415.381591796875,1802.1182861328125C2416.2060546875,1802.942626953125,2416.2060546875,1804.2794189453125,2415.381591796875,1805.1038818359375L2399.98583984375,1820.5L2415.381591796875,1835.8961181640625C2416.2060546875,1836.7205810546875,2416.2060546875,1838.05712890625,2415.381591796875,1838.881591796875C2414.556884765625,1839.7060546875,2413.220947265625,1839.7060546875,2412.396240234375,1838.881591796875L2397,1823.485595703125L2381.603759765625,1838.881591796875C2380.77978515625,1839.7060546875,2379.4423828125,1839.7060546875,2378.618408203125,1838.881591796875C2377.7939453125,1838.05712890625,2377.7939453125,1836.7205810546875,2378.618408203125,1835.8961181640625L2394.01416015625,1820.5L2378.618408203125,1805.1038818359375C2377.7939453125,1804.2794189453125,2377.7939453125,1802.942626953125,2378.618408203125,1802.1182861328125Z" fill-rule="evenodd" clip-rule="evenodd" style="fill:#1e3e8a;fill-opacity:1">
        </path>
      </g>
    </g>
  </g>

  <g id="shape-521fe5e2-1c18-8017-8008-072b6565bbd9">
    <g class="fills" id="fills-521fe5e2-1c18-8017-8008-072b6565bbd9">
      <path d="M2378.618408203125,1802.1182861328125C2379.4423828125,1801.293701171875,2380.77978515625,1801.293701171875,2381.603759765625,1802.1182861328125L2397,1817.51416015625L2412.396240234375,1802.1182861328125C2413.220947265625,1801.293701171875,2414.556884765625,1801.293701171875,2415.381591796875,1802.1182861328125C2416.2060546875,1802.942626953125,2416.2060546875,1804.2794189453125,2415.381591796875,1805.1038818359375L2399.98583984375,1820.5L2415.381591796875,1835.8961181640625C2416.2060546875,1836.7205810546875,2416.2060546875,1838.05712890625,2415.381591796875,1838.881591796875C2414.556884765625,1839.7060546875,2413.220947265625,1839.7060546875,2412.396240234375,1838.881591796875L2397,1823.485595703125L2381.603759765625,1838.881591796875C2380.77978515625,1839.7060546875,2379.4423828125,1839.7060546875,2378.618408203125,1838.881591796875C2377.7939453125,1838.05712890625,2377.7939453125,1836.7205810546875,2378.618408203125,1835.8961181640625L2394.01416015625,1820.5L2378.618408203125,1805.1038818359375C2377.7939453125,1804.2794189453125,2377.7939453125,1802.942626953125,2378.618408203125,1802.1182861328125Z" fill-rule="evenodd" clip-rule="evenodd" style="fill:#1e3e8a;fill-opacity:1">
      </path>
    </g>
  </g>
</svg>