<svg width="46" xmlns="http://www.w3.org/2000/svg" height="46" id="screenshot-a1711d8d-11c4-80e2-8008-039cba543521" viewBox="2099 1330 46 46" style="-webkit-print-color-adjust::exact" xmlns:xlink="http://www.w3.org/1999/xlink" fill="none" version="1.1">
  <g id="shape-a1711d8d-11c4-80e2-8008-039cba543521" style="fill:#000000" width="24" height="24" rx="0" ry="0">
    <g id="shape-a1711d8d-11c4-80e2-8008-039cba5bc69a">
      <g class="fills" id="fills-a1711d8d-11c4-80e2-8008-039cba5bc69a">
        <path d="M2122.000244140625,1330C2109.297607421875,1330,2099.000244140625,1340.2974853515625,2099.000244140625,1353C2099.000244140625,1365.70263671875,2109.297607421875,1376,2122.000244140625,1376C2134.702880859375,1376,2145.000244140625,1365.70263671875,2145.000244140625,1353C2145.000244140625,1340.2974853515625,2134.702880859375,1330,2122.000244140625,1330ZM2115.807861328125,1344.15380859375C2114.532470703125,1344.15380859375,2113.853759765625,1345.141845703125,2113.599853515625,1345.6500244140625C2113.292724609375,1346.26416015625,2113.154052734375,1346.9886474609375,2113.154052734375,1347.6923828125C2113.154052734375,1348.39599609375,2113.292724609375,1349.1204833984375,2113.599853515625,1349.7344970703125C2113.853759765625,1350.242919921875,2114.532470703125,1351.230712890625,2115.807861328125,1351.230712890625C2117.0830078125,1351.230712890625,2117.761474609375,1350.242919921875,2118.015625,1349.7344970703125C2118.322265625,1349.1204833984375,2118.461669921875,1348.39599609375,2118.461669921875,1347.6923828125C2118.461669921875,1346.9886474609375,2118.322265625,1346.26416015625,2118.015625,1345.6500244140625C2117.761474609375,1345.141845703125,2117.0830078125,1344.15380859375,2115.807861328125,1344.15380859375ZM2125.984375,1345.6500244140625C2126.238525390625,1345.141845703125,2126.9169921875,1344.15380859375,2128.192626953125,1344.15380859375C2129.467529296875,1344.15380859375,2130.146240234375,1345.141845703125,2130.400146484375,1345.6500244140625C2130.70703125,1346.26416015625,2130.846435546875,1346.9886474609375,2130.846435546875,1347.6923828125C2130.846435546875,1348.39599609375,2130.70703125,1349.1204833984375,2130.400146484375,1349.7344970703125C2130.146240234375,1350.242919921875,2129.467529296875,1351.230712890625,2128.192626953125,1351.230712890625C2126.9169921875,1351.230712890625,2126.238525390625,1350.242919921875,2125.984375,1349.7344970703125C2125.677490234375,1349.1204833984375,2125.538818359375,1348.39599609375,2125.538818359375,1347.6923828125C2125.538818359375,1346.9886474609375,2125.677490234375,1346.26416015625,2125.984375,1345.6500244140625ZM2115.745849609375,1364.436767578125C2115.0546875,1365.1278076171875,2113.9345703125,1365.1278076171875,2113.243408203125,1364.436767578125C2112.552734375,1363.745849609375,2112.552734375,1362.625732421875,2113.243408203125,1361.934814453125C2115.672607421875,1359.506103515625,2118.862548828125,1358.296630859375,2122.04345703125,1358.3074951171875C2125.196044921875,1358.3182373046875,2128.35107421875,1359.52783203125,2130.7578125,1361.934814453125C2131.448974609375,1362.625732421875,2131.448974609375,1363.745849609375,2130.7578125,1364.436767578125C2130.067138671875,1365.1278076171875,2128.947021484375,1365.1278076171875,2128.256103515625,1364.436767578125C2126.5361328125,1362.7169189453125,2124.287841796875,1361.853759765625,2122.03125,1361.845947265625C2119.754150390625,1361.838134765625,2117.48095703125,1362.7015380859375,2115.745849609375,1364.436767578125Z" fill-rule="evenodd" clip-rule="evenodd" style="fill:#1e3e8a;fill-opacity:1">
        </path>
      </g>
    </g>
  </g>

  <g id="shape-a1711d8d-11c4-80e2-8008-039cba5bc69a">
    <g class="fills" id="fills-a1711d8d-11c4-80e2-8008-039cba5bc69a">
      <path d="M2122.000244140625,1330C2109.297607421875,1330,2099.000244140625,1340.2974853515625,2099.000244140625,1353C2099.000244140625,1365.70263671875,2109.297607421875,1376,2122.000244140625,1376C2134.702880859375,1376,2145.000244140625,1365.70263671875,2145.000244140625,1353C2145.000244140625,1340.2974853515625,2134.702880859375,1330,2122.000244140625,1330ZM2115.807861328125,1344.15380859375C2114.532470703125,1344.15380859375,2113.853759765625,1345.141845703125,2113.599853515625,1345.6500244140625C2113.292724609375,1346.26416015625,2113.154052734375,1346.9886474609375,2113.154052734375,1347.6923828125C2113.154052734375,1348.39599609375,2113.292724609375,1349.1204833984375,2113.599853515625,1349.7344970703125C2113.853759765625,1350.242919921875,2114.532470703125,1351.230712890625,2115.807861328125,1351.230712890625C2117.0830078125,1351.230712890625,2117.761474609375,1350.242919921875,2118.015625,1349.7344970703125C2118.322265625,1349.1204833984375,2118.461669921875,1348.39599609375,2118.461669921875,1347.6923828125C2118.461669921875,1346.9886474609375,2118.322265625,1346.26416015625,2118.015625,1345.6500244140625C2117.761474609375,1345.141845703125,2117.0830078125,1344.15380859375,2115.807861328125,1344.15380859375ZM2125.984375,1345.6500244140625C2126.238525390625,1345.141845703125,2126.9169921875,1344.15380859375,2128.192626953125,1344.15380859375C2129.467529296875,1344.15380859375,2130.146240234375,1345.141845703125,2130.400146484375,1345.6500244140625C2130.70703125,1346.26416015625,2130.846435546875,1346.9886474609375,2130.846435546875,1347.6923828125C2130.846435546875,1348.39599609375,2130.70703125,1349.1204833984375,2130.400146484375,1349.7344970703125C2130.146240234375,1350.242919921875,2129.467529296875,1351.230712890625,2128.192626953125,1351.230712890625C2126.9169921875,1351.230712890625,2126.238525390625,1350.242919921875,2125.984375,1349.7344970703125C2125.677490234375,1349.1204833984375,2125.538818359375,1348.39599609375,2125.538818359375,1347.6923828125C2125.538818359375,1346.9886474609375,2125.677490234375,1346.26416015625,2125.984375,1345.6500244140625ZM2115.745849609375,1364.436767578125C2115.0546875,1365.1278076171875,2113.9345703125,1365.1278076171875,2113.243408203125,1364.436767578125C2112.552734375,1363.745849609375,2112.552734375,1362.625732421875,2113.243408203125,1361.934814453125C2115.672607421875,1359.506103515625,2118.862548828125,1358.296630859375,2122.04345703125,1358.3074951171875C2125.196044921875,1358.3182373046875,2128.35107421875,1359.52783203125,2130.7578125,1361.934814453125C2131.448974609375,1362.625732421875,2131.448974609375,1363.745849609375,2130.7578125,1364.436767578125C2130.067138671875,1365.1278076171875,2128.947021484375,1365.1278076171875,2128.256103515625,1364.436767578125C2126.5361328125,1362.7169189453125,2124.287841796875,1361.853759765625,2122.03125,1361.845947265625C2119.754150390625,1361.838134765625,2117.48095703125,1362.7015380859375,2115.745849609375,1364.436767578125Z" fill-rule="evenodd" clip-rule="evenodd" style="fill:#1e3e8a;fill-opacity:1">
      </path>
    </g>
  </g>
</svg>